<svg width="19" height="19" viewBox="0 0 19 19" fill="none" xmlns="http://www.w3.org/2000/svg">
<circle cx="9.5" cy="9.5" r="9.5" transform="rotate(-90 9.5 9.5)" fill="url(#paint0_linear_236_58)"/>
<path d="M11.25 7.46692L10.9891 9.69C10.9561 9.9662 11.2741 10.1691 11.5578 10.053L12.2761 9.7599C12.5497 9.64829 12.665 9.35631 12.5307 9.11732L11.5743 7.41394C11.497 7.27753 11.2677 7.31473 11.25 7.46692V7.46692Z" fill="white"/>
<path d="M10.9714 14.1487H14.465C14.8755 14.1487 15.1415 13.7643 14.9578 13.4385L13.6315 11.0779C13.3237 10.53 12.5839 10.2989 11.9594 10.5537L9.6514 11.4961C9.42592 11.5886 9.32965 11.8275 9.43859 12.026L10.4419 13.8545C10.5407 14.0337 10.7459 14.1476 10.9701 14.1476L10.9714 14.1487Z" fill="white"/>
<path d="M10.3279 9.51881L10.6648 6.64526C10.718 6.18644 10.6243 5.72199 10.3912 5.30939L9.80345 4.2621C9.60711 3.91263 9.04721 3.91263 8.85086 4.2621L4.13097 12.6618C4.02709 12.8455 4.24244 13.0428 4.45145 12.9572L9.08014 11.0666C9.77432 10.7825 10.2481 10.1941 10.3279 9.51881Z" fill="white"/>
<path d="M8.85069 12.3295C8.72529 12.1007 8.41747 12.0026 8.15652 12.1086L4.11687 13.8041C3.92052 13.8864 3.98639 14.149 4.20427 14.149H9.09644C9.4448 14.149 9.67155 13.8244 9.51954 13.547L8.85196 12.3295H8.85069Z" fill="white"/>
<defs>
<linearGradient id="paint0_linear_236_58" x1="9.5" y1="0" x2="9.5" y2="19" gradientUnits="userSpaceOnUse">
<stop stop-color="#08A4DF"/>
<stop offset="1" stop-color="#0060FA"/>
</linearGradient>
</defs>
</svg>
