<svg width="19" height="14" viewBox="0 0 19 14" fill="none" xmlns="http://www.w3.org/2000/svg">
<path d="M4.02306 13.6806L6.72761 11.2111C7.03781 10.9279 6.82454 10.4499 6.38833 10.4499L4.65315 10.4499L4.65315 4.36026C4.65315 3.47513 5.30263 2.65197 6.26231 2.51035C7.47402 2.32447 8.53064 3.18304 8.53064 4.25404L8.53064 10.2994C8.53064 12.1493 10.0138 13.7957 12.0301 13.9727C12.5686 14.0211 13.1122 13.9661 13.626 13.8111C14.1397 13.6561 14.6123 13.4046 15.0131 13.0727C15.414 12.7409 15.7343 12.336 15.9535 11.8843C16.1726 11.4326 16.2858 10.944 16.2856 10.4499L16.2856 4.25404L18.0208 4.25404C18.457 4.25404 18.6703 3.77607 18.3601 3.50169L15.6555 1.03219C15.4616 0.855168 15.1611 0.855168 14.9673 1.03219L12.2627 3.50169C12.1957 3.56408 12.1505 3.64319 12.1326 3.72904C12.1148 3.81488 12.1252 3.90363 12.1625 3.98408C12.1999 4.06454 12.2624 4.13311 12.3424 4.18115C12.4223 4.22919 12.516 4.25455 12.6117 4.25404L14.3469 4.25404L14.3469 10.3437C14.3469 11.2288 13.6974 12.052 12.7377 12.1936C11.526 12.3795 10.4694 11.5209 10.4694 10.4499L10.4694 4.40451C10.4694 2.5546 8.98624 0.908275 6.96995 0.73125C4.66285 0.527672 2.71441 2.18285 2.71441 4.25404L2.71441 10.4499L0.979233 10.4499C0.543015 10.4499 0.329754 10.9279 0.639954 11.2023L3.3445 13.6718C3.52868 13.8488 3.83888 13.8488 4.02306 13.6806Z" fill="white"/>
</svg>
